<svg width="102" height="114" viewBox="0 0 102 114" fill="none" xmlns="http://www.w3.org/2000/svg">
<path d="M94.7375 55.7319L19.735 72.9393L20 65.5L22.3372 58.1819L78.3369 46.123L79.0881 48.86L29.6512 16.7018L30 9.50001L32.1361 2.60922L96.4723 45.8937L94.7375 55.7319Z" fill="#0ABCF7"/>
<rect x="17.3648" width="15" height="100" transform="rotate(10 17.3648 0)" fill="#26F527"/>
<path d="M55.0722 101.235C52.8722 101.235 51.1722 100.602 49.9722 99.3349C48.7722 98.0015 48.1722 96.1349 48.1722 93.7349C48.1722 91.5349 48.8056 89.7349 50.0722 88.3349C51.3389 86.9349 53.0056 86.2349 55.0722 86.2349C57.2722 86.2349 58.9722 86.9015 60.1722 88.2349C61.3722 89.5015 61.9722 91.3349 61.9722 93.7349C61.9722 95.9349 61.3389 97.7349 60.0722 99.1349C58.8056 100.535 57.1389 101.235 55.0722 101.235Z" fill="#FF1178"/>
</svg>
