<svg width="876" height="174" viewBox="0 0 876 174" fill="none" xmlns="http://www.w3.org/2000/svg">
<path d="M798.244 6.9518C615.715 -0.507306 432.726 2.45334 250.057 2.45334C182.025 2.45334 106.604 -0.887699 43.2522 29.0692C27.2202 36.6503 13.4298 46.5919 6.13992 63.1826C1.67002 73.3554 -0.783374 87.5445 6.63975 96.9211C13.3845 105.441 24.0906 111.022 33.7555 115.415C52.9814 124.154 73.7968 128.991 94.2973 133.658C185.84 154.5 280.29 161.927 373.889 166.397C513.248 173.053 652.277 173.812 791.621 166.397C814.446 165.183 844.471 165.163 861.598 147.029C872.503 135.482 873.187 118.014 873.531 103.044C873.897 87.1206 872.598 73.0254 864.971 58.7466C856.254 42.4238 842.146 31.607 825.547 23.946C785.948 5.66927 738.181 4.11946 695.904 12.5749" stroke="#FFFF11" stroke-width="3" stroke-linecap="round"/>
</svg>
