<svg width="323" height="103" viewBox="0 0 323 103" fill="none" xmlns="http://www.w3.org/2000/svg">
<path d="M24.9 81C20.3 81 16.1333 79.8333 12.4 77.5C8.73333 75.1667 5.83333 71.9333 3.7 67.8C1.63333 63.6 0.6 58.8667 0.6 53.6C0.6 48.2667 1.63333 43.5333 3.7 39.4C5.83333 35.2667 8.73333 32 12.4 29.6C16.0667 27.2 20.2333 26 24.9 26C27.3667 26 29.7333 26.4 32 27.2C34.3333 27.9333 36.4 28.9667 38.2 30.3C40 31.6333 41.4667 33.1333 42.6 34.8C43.7333 36.4 44.4 38.0667 44.6 39.8L41 40.5V6H55.1V80H41.7L41.1 67.8L43.9 68.2C43.8333 69.8 43.2667 71.3667 42.2 72.9C41.1333 74.4333 39.7 75.8333 37.9 77.1C36.1667 78.3 34.1667 79.2667 31.9 80C29.7 80.6667 27.3667 81 24.9 81ZM28 69.2C30.7333 69.2 33.0667 68.5333 35 67.2C37 65.8667 38.5667 64.0333 39.7 61.7C40.8333 59.3667 41.4 56.6667 41.4 53.6C41.4 50.4667 40.8333 47.7333 39.7 45.4C38.5667 43 37 41.1667 35 39.9C33.0667 38.5667 30.7333 37.9 28 37.9C25.4 37.9 23.1 38.5667 21.1 39.9C19.1 41.1667 17.5333 43 16.4 45.4C15.3333 47.7333 14.8 50.4667 14.8 53.6C14.8 56.6667 15.3333 59.3667 16.4 61.7C17.5333 64.0333 19.1 65.8667 21.1 67.2C23.1 68.5333 25.4 69.2 28 69.2ZM93.9461 81C88.2128 81 83.1794 79.8333 78.8461 77.5C74.5794 75.1667 71.2461 71.9667 68.8461 67.9C66.5128 63.8333 65.3461 59.2 65.3461 54C65.3461 49.8667 66.0128 46.1 67.3461 42.7C68.6794 39.2333 70.5461 36.2667 72.9461 33.8C75.3461 31.3333 78.1794 29.4333 81.4461 28.1C84.7794 26.7 88.4128 26 92.3461 26C95.9461 26 99.2461 26.6667 102.246 28C105.313 29.2667 107.946 31.1 110.146 33.5C112.413 35.8333 114.146 38.6 115.346 41.8C116.546 45 117.113 48.5 117.046 52.3L116.946 56.7H74.4461L72.1461 47.9H105.246L103.546 49.7V47.6C103.413 45.7333 102.813 44.1 101.746 42.7C100.746 41.3 99.4461 40.2 97.8461 39.4C96.2461 38.5333 94.4794 38.1 92.5461 38.1C89.5461 38.1 87.0128 38.7 84.9461 39.9C82.9461 41.0333 81.4128 42.7 80.3461 44.9C79.3461 47.0333 78.8461 49.7 78.8461 52.9C78.8461 56.0333 79.5128 58.8 80.8461 61.2C82.1794 63.5333 84.0794 65.3333 86.5461 66.6C89.0794 67.8667 92.0461 68.5 95.4461 68.5C97.7794 68.5 99.9128 68.1333 101.846 67.4C103.779 66.6667 105.879 65.4 108.146 63.6L114.846 73.1C112.979 74.7667 110.879 76.2 108.546 77.4C106.213 78.6 103.813 79.5 101.346 80.1C98.8794 80.7 96.4128 81 93.9461 81ZM145.338 81C140.471 81 136.104 80.2 132.238 78.6C128.438 77 125.338 74.7333 122.938 71.8L131.838 64.2C133.904 66.4 136.171 68 138.638 69C141.171 69.9333 143.738 70.4 146.338 70.4C147.271 70.4 148.138 70.3 148.938 70.1C149.738 69.8333 150.438 69.5 151.038 69.1C151.638 68.6333 152.071 68.1 152.338 67.5C152.671 66.9 152.838 66.2 152.838 65.4C152.838 63.9333 152.238 62.8 151.038 62C150.504 61.6 149.504 61.1667 148.038 60.7C146.638 60.1667 144.838 59.6 142.638 59C139.238 58.1333 136.371 57.1333 134.038 56C131.704 54.8 129.804 53.4333 128.338 51.9C127.138 50.6333 126.204 49.1667 125.538 47.5C124.938 45.8333 124.638 44 124.638 42C124.638 38.8 125.571 36 127.438 33.6C129.304 31.2 131.771 29.3333 134.838 28C137.971 26.6667 141.371 26 145.038 26C147.771 26 150.404 26.3333 152.938 27C155.538 27.6667 157.938 28.6333 160.138 29.9C162.404 31.1 164.371 32.5333 166.038 34.2L158.438 42.7C157.238 41.5 155.871 40.4667 154.338 39.6C152.804 38.6667 151.271 37.9333 149.738 37.4C148.204 36.8 146.804 36.5 145.538 36.5C144.404 36.5 143.371 36.6 142.438 36.8C141.571 37 140.838 37.3333 140.238 37.8C139.638 38.2 139.171 38.7 138.838 39.3C138.571 39.9 138.438 40.5667 138.438 41.3C138.438 42.0333 138.604 42.7333 138.938 43.4C139.338 44 139.871 44.5667 140.538 45.1C141.204 45.5 142.271 45.9667 143.738 46.5C145.271 47.0333 147.238 47.6333 149.638 48.3C152.838 49.1667 155.538 50.1333 157.738 51.2C159.938 52.2667 161.704 53.5 163.038 54.9C164.238 56.1 165.071 57.5 165.538 59.1C166.071 60.6333 166.338 62.3 166.338 64.1C166.338 67.3667 165.404 70.3 163.538 72.9C161.738 75.4333 159.238 77.4333 156.038 78.9C152.904 80.3 149.338 81 145.338 81ZM177.761 80V27.1H191.961V80H177.761ZM184.761 16.2C182.028 16.2 179.894 15.5333 178.361 14.2C176.828 12.8667 176.061 10.9667 176.061 8.5C176.061 6.23333 176.828 4.4 178.361 3C179.961 1.53333 182.128 0.799994 184.861 0.799994C187.528 0.799994 189.628 1.5 191.161 2.9C192.694 4.23333 193.461 6.1 193.461 8.5C193.461 10.8333 192.694 12.7 191.161 14.1C189.628 15.5 187.494 16.2 184.761 16.2ZM231.325 103C227.192 103 223.058 102.4 218.925 101.2C214.858 100 211.558 98.4 209.025 96.4L214.025 86.2C216.158 87.6667 218.592 88.8333 221.325 89.7C224.125 90.5667 226.992 91 229.925 91C233.458 91 236.325 90.4667 238.525 89.4C240.792 88.3333 242.458 86.7333 243.525 84.6C244.658 82.5333 245.225 79.9 245.225 76.7V67.5L247.625 68.1C247.225 70.1667 246.092 72.1333 244.225 74C242.425 75.8 240.192 77.2667 237.525 78.4C234.858 79.5333 232.058 80.1 229.125 80.1C224.258 80.1 219.892 78.9667 216.025 76.7C212.225 74.3667 209.225 71.2 207.025 67.2C204.825 63.2 203.725 58.6 203.725 53.4C203.725 48.0667 204.825 43.3333 207.025 39.2C209.225 35.0667 212.192 31.8333 215.925 29.5C219.725 27.1667 223.992 26 228.725 26C230.725 26 232.625 26.2333 234.425 26.7C236.292 27.1667 237.992 27.8333 239.525 28.7C241.125 29.5 242.558 30.4 243.825 31.4C245.092 32.4 246.125 33.5 246.925 34.7C247.725 35.9 248.225 37.1 248.425 38.3L245.425 39.2L245.825 27.1H259.525V76C259.525 80.2667 258.858 84.0667 257.525 87.4C256.258 90.8 254.392 93.6333 251.925 95.9C249.525 98.2333 246.592 100 243.125 101.2C239.658 102.4 235.725 103 231.325 103ZM231.725 68.6C234.525 68.6 236.958 67.9667 239.025 66.7C241.158 65.4333 242.792 63.6667 243.925 61.4C245.125 59.1333 245.725 56.5 245.725 53.5C245.725 50.4333 245.125 47.7667 243.925 45.5C242.792 43.2333 241.158 41.4667 239.025 40.2C236.958 38.8667 234.525 38.2 231.725 38.2C228.992 38.2 226.592 38.8667 224.525 40.2C222.458 41.4667 220.825 43.2333 219.625 45.5C218.492 47.7667 217.925 50.4 217.925 53.4C217.925 56.4 218.492 59.0667 219.625 61.4C220.825 63.6667 222.458 65.4333 224.525 66.7C226.592 67.9667 228.992 68.6 231.725 68.6ZM273.534 80V27.1H287.234L287.634 37.9L284.834 39.1C285.5 36.7 286.8 34.5333 288.734 32.6C290.667 30.6 292.967 29 295.634 27.8C298.3 26.6 301.067 26 303.934 26C307.934 26 311.267 26.8 313.934 28.4C316.667 30 318.7 32.4333 320.034 35.7C321.434 38.9 322.134 42.9 322.134 47.7V80H307.934V48.7C307.934 46.3 307.6 44.3 306.934 42.7C306.267 41.1 305.267 39.9333 303.934 39.2C302.6 38.4667 300.9 38.1333 298.834 38.2C297.234 38.2 295.767 38.4667 294.434 39C293.1 39.4667 291.9 40.1667 290.834 41.1C289.834 42.0333 289.067 43.1 288.534 44.3C288 45.5 287.734 46.8333 287.734 48.3V80H280.634C279.167 80 277.834 80 276.634 80C275.434 80 274.4 80 273.534 80Z" fill="#26F527"/>
</svg>
