<svg width="32" height="165" viewBox="0 0 32 165" fill="none" xmlns="http://www.w3.org/2000/svg">
<path d="M28.6814 2C28.8631 14.5226 30.059 26.9599 29.9977 39.5125C29.8433 71.1446 24.5291 102.866 15.024 132.664C12.5221 140.507 9.7419 148.443 5.71799 155.505C5.46182 155.954 1.82733 162.446 2.42706 159.325C3.82984 152.025 3.6703 144.58 3.6703 137.155C3.6703 136.773 3.6703 133.599 3.6703 133.964C3.6703 136.645 3.71759 139.332 3.63373 142.011C3.42636 148.638 2.02483 155.127 2.02483 161.763C2.02483 162.502 1.8034 163.431 2.68302 162.779C5.64835 160.582 8.31834 157.86 10.8738 155.118C12.9085 152.936 15.1742 150.938 16.9437 148.473C17.7501 147.35 18.4539 146.285 19.4668 145.385" stroke="white" stroke-width="3" stroke-linecap="round"/>
</svg>
