<svg width="117" height="418" viewBox="0 0 117 418" fill="none" xmlns="http://www.w3.org/2000/svg">
<path d="M39.1593 1.72461C41.2493 5.91871 50.0902 23.2892 51.9526 28.3614C61.2326 53.6357 64.0526 82.8621 67.801 109.131C72 138.558 75.4929 163.756 76.6322 193.338C77.7591 222.599 74.322 250.717 67.7055 279.168C59.7167 313.52 48.6117 346.604 30.71 377.075C23.4416 389.446 15.6167 402.805 4.21634 411.97C-1.68337 416.713 4.17572 396.095 4.40729 395.023C7.19456 382.122 9.36315 369.263 10.613 356.118C11.6323 345.399 12.3848 334.661 14.241 324.04C14.676 321.55 15.3608 314.497 16.4368 316.784C17.6698 319.404 16.124 325.94 15.864 328.336C13.461 350.478 9.89514 372.691 6.12579 394.642C5.11409 400.533 4.59728 406.485 3.45256 412.352C3.29118 413.179 3.40628 415.272 2.64105 415.884C-0.266698 418.21 8.6077 411.425 11.6632 409.297C24.4789 400.369 37.8877 392.338 51.6662 384.999C72.7072 373.791 94.1651 363.406 114.773 351.44" stroke="white" stroke-width="3" stroke-linecap="round"/>
</svg>
