<svg width="188" height="48" viewBox="0 0 188 48" fill="none" xmlns="http://www.w3.org/2000/svg">
<path d="M0.6 48V10.75H5.8V16.75L5 16.3C5.2 15.3 5.76667 14.35 6.7 13.45C7.63333 12.5167 8.76667 11.7667 10.1 11.2C11.4667 10.6 12.8667 10.3 14.3 10.3C16.6667 10.3 18.7667 10.8833 20.6 12.05C22.4333 13.2167 23.8833 14.8167 24.95 16.85C26.0167 18.8833 26.55 21.2167 26.55 23.85C26.55 26.45 26.0167 28.7833 24.95 30.85C23.9167 32.8833 22.4833 34.5 20.65 35.7C18.8167 36.8667 16.75 37.45 14.45 37.45C12.9167 37.45 11.4333 37.15 10 36.55C8.56667 35.9167 7.35 35.1167 6.35 34.15C5.35 33.1833 4.73333 32.1833 4.5 31.15L5.8 30.45V48H0.6ZM13.6 32.7C15.1333 32.7 16.5 32.3167 17.7 31.55C18.9 30.7833 19.85 29.7333 20.55 28.4C21.25 27.0667 21.6 25.55 21.6 23.85C21.6 22.15 21.25 20.65 20.55 19.35C19.8833 18.0167 18.95 16.9667 17.75 16.2C16.55 15.4333 15.1667 15.05 13.6 15.05C12.0333 15.05 10.65 15.4333 9.45 16.2C8.25 16.9333 7.3 17.9667 6.6 19.3C5.9 20.6333 5.55 22.15 5.55 23.85C5.55 25.55 5.9 27.0667 6.6 28.4C7.3 29.7333 8.25 30.7833 9.45 31.55C10.65 32.3167 12.0333 32.7 13.6 32.7ZM44.393 37.5C41.693 37.5 39.293 36.9333 37.193 35.8C35.1263 34.6333 33.493 33.05 32.293 31.05C31.1263 29.05 30.543 26.75 30.543 24.15C30.543 22.0833 30.8763 20.2 31.543 18.5C32.2096 16.8 33.1263 15.3333 34.293 14.1C35.493 12.8333 36.9096 11.8667 38.543 11.2C40.2096 10.5 42.0096 10.15 43.943 10.15C45.643 10.15 47.2263 10.4833 48.693 11.15C50.1596 11.7833 51.4263 12.6667 52.493 13.8C53.593 14.9333 54.4263 16.2833 54.993 17.85C55.593 19.3833 55.8763 21.0667 55.843 22.9L55.793 25.1H34.343L33.193 21H51.343L50.593 21.85V20.65C50.493 19.55 50.1263 18.5667 49.493 17.7C48.8596 16.8333 48.0596 16.15 47.093 15.65C46.1263 15.15 45.0763 14.9 43.943 14.9C42.143 14.9 40.6263 15.25 39.393 15.95C38.1596 16.6167 37.2263 17.6167 36.593 18.95C35.9596 20.25 35.643 21.8667 35.643 23.8C35.643 25.6333 36.0263 27.2333 36.793 28.6C37.5596 29.9333 38.643 30.9667 40.043 31.7C41.443 32.4333 43.0596 32.8 44.893 32.8C46.193 32.8 47.393 32.5833 48.493 32.15C49.6263 31.7167 50.843 30.9333 52.143 29.8L54.743 33.45C53.943 34.25 52.9596 34.95 51.793 35.55C50.6596 36.15 49.443 36.6333 48.143 37C46.8763 37.3333 45.6263 37.5 44.393 37.5ZM70.6398 37.5C68.7732 37.5 67.1398 37.0667 65.7398 36.2C64.3732 35.3333 63.3065 34.1167 62.5398 32.55C61.8065 30.9833 61.4398 29.1167 61.4398 26.95V10.75H66.5898V25.55C66.5898 27.85 67.1232 29.6667 68.1898 31C69.2898 32.3333 70.8065 33 72.7398 33C73.7065 33 74.5898 32.85 75.3898 32.55C76.1898 32.2167 76.8732 31.7667 77.4398 31.2C78.0398 30.6333 78.5065 29.95 78.8398 29.15C79.1732 28.35 79.3398 27.4833 79.3398 26.55V10.75H84.4898V37H79.3398V31.5L80.2398 30.9C79.8398 32.1333 79.1565 33.25 78.1898 34.25C77.2565 35.25 76.1398 36.05 74.8398 36.65C73.5398 37.2167 72.1398 37.5 70.6398 37.5Z" fill="#26F527"/>
<path d="M93.8133 37.55C92.7133 37.55 91.8633 37.2333 91.2633 36.6C90.6633 35.9333 90.3633 35 90.3633 33.8C90.3633 32.7 90.6799 31.8 91.3133 31.1C91.9466 30.4 92.7799 30.05 93.8133 30.05C94.9133 30.05 95.7633 30.3833 96.3633 31.05C96.9633 31.6833 97.2633 32.6 97.2633 33.8C97.2633 34.9 96.9466 35.8 96.3133 36.5C95.6799 37.2 94.8466 37.55 93.8133 37.55Z" fill="#FF1178"/>
<path d="M114.04 37.5C111.64 37.5 109.49 36.9167 107.59 35.75C105.724 34.55 104.24 32.9333 103.14 30.9C102.04 28.8333 101.49 26.4833 101.49 23.85C101.49 21.2167 102.024 18.8833 103.09 16.85C104.19 14.7833 105.674 13.1667 107.54 12C109.407 10.8 111.524 10.2 113.89 10.2C115.19 10.2 116.44 10.4167 117.64 10.85C118.874 11.25 119.974 11.8167 120.94 12.55C121.907 13.25 122.657 14.0333 123.19 14.9C123.757 15.7333 124.04 16.5833 124.04 17.45L122.54 17.55V-4.76837e-07H127.69V37H122.54V30.75H123.54C123.54 31.55 123.274 32.35 122.74 33.15C122.207 33.9167 121.49 34.6333 120.59 35.3C119.724 35.9667 118.707 36.5 117.54 36.9C116.407 37.3 115.24 37.5 114.04 37.5ZM114.74 33.05C116.307 33.05 117.69 32.65 118.89 31.85C120.09 31.05 121.024 29.9667 121.69 28.6C122.39 27.2 122.74 25.6167 122.74 23.85C122.74 22.0833 122.39 20.5167 121.69 19.15C121.024 17.75 120.09 16.65 118.89 15.85C117.69 15.05 116.307 14.65 114.74 14.65C113.174 14.65 111.79 15.05 110.59 15.85C109.39 16.65 108.44 17.75 107.74 19.15C107.074 20.5167 106.74 22.0833 106.74 23.85C106.74 25.6167 107.074 27.2 107.74 28.6C108.44 29.9667 109.39 31.05 110.59 31.85C111.79 32.65 113.174 33.05 114.74 33.05ZM147.03 37.5C144.33 37.5 141.93 36.9333 139.83 35.8C137.763 34.6333 136.13 33.05 134.93 31.05C133.763 29.05 133.18 26.75 133.18 24.15C133.18 22.0833 133.513 20.2 134.18 18.5C134.846 16.8 135.763 15.3333 136.93 14.1C138.13 12.8333 139.546 11.8667 141.18 11.2C142.846 10.5 144.646 10.15 146.58 10.15C148.28 10.15 149.863 10.4833 151.33 11.15C152.796 11.7833 154.063 12.6667 155.13 13.8C156.23 14.9333 157.063 16.2833 157.63 17.85C158.23 19.3833 158.513 21.0667 158.48 22.9L158.43 25.1H136.98L135.83 21H153.98L153.23 21.85V20.65C153.13 19.55 152.763 18.5667 152.13 17.7C151.496 16.8333 150.696 16.15 149.73 15.65C148.763 15.15 147.713 14.9 146.58 14.9C144.78 14.9 143.263 15.25 142.03 15.95C140.796 16.6167 139.863 17.6167 139.23 18.95C138.596 20.25 138.28 21.8667 138.28 23.8C138.28 25.6333 138.663 27.2333 139.43 28.6C140.196 29.9333 141.28 30.9667 142.68 31.7C144.08 32.4333 145.696 32.8 147.53 32.8C148.83 32.8 150.03 32.5833 151.13 32.15C152.263 31.7167 153.48 30.9333 154.78 29.8L157.38 33.45C156.58 34.25 155.596 34.95 154.43 35.55C153.296 36.15 152.08 36.6333 150.78 37C149.513 37.3333 148.263 37.5 147.03 37.5ZM172.188 37L161.088 10.75H166.638L174.638 30.4L173.688 30.85L182.238 10.75H187.538L175.888 37H172.188Z" fill="#0ABCF7"/>
</svg>
